<svg xmlns="http://www.w3.org/2000/svg" width="30.228" height="30.228" viewBox="0 0 30.228 30.228">
  <g id="instagram_1_" transform="translate(0 0)">
    <path id="Path_5" data-name="Path 5" d="M726.984,3.366c4.036,0,4.515.016,6.109.088a8.374,8.374,0,0,1,2.807.521,4.675,4.675,0,0,1,1.738,1.132,4.675,4.675,0,0,1,1.132,1.738,8.374,8.374,0,0,1,.521,2.807c.072,1.594.088,2.073.088,6.109s-.016,4.515-.088,6.109a8.374,8.374,0,0,1-.521,2.807,5.016,5.016,0,0,1-2.87,2.87,8.374,8.374,0,0,1-2.807.521c-1.594.072-2.073.088-6.109.088s-4.515-.016-6.109-.088a8.374,8.374,0,0,1-2.807-.521,5.015,5.015,0,0,1-2.87-2.87,8.374,8.374,0,0,1-.521-2.807c-.072-1.594-.088-2.073-.088-6.109s.016-4.515.088-6.109a8.374,8.374,0,0,1,.521-2.807,4.675,4.675,0,0,1,1.132-1.738,4.676,4.676,0,0,1,1.738-1.132,8.374,8.374,0,0,1,2.807-.521c1.594-.074,2.073-.088,6.109-.088m0-2.726c-4.106,0-4.622.016-6.232.091a11.164,11.164,0,0,0-3.669.7,7.4,7.4,0,0,0-2.677,1.743,7.419,7.419,0,0,0-1.743,2.677,11.056,11.056,0,0,0-.7,3.669c-.074,1.613-.091,2.126-.091,6.232s.016,4.622.091,6.232a11.164,11.164,0,0,0,.7,3.669,7.723,7.723,0,0,0,4.42,4.42,11.058,11.058,0,0,0,3.669.7c1.613.074,2.129.091,6.232.091s4.622-.016,6.232-.091a11.165,11.165,0,0,0,3.669-.7,7.724,7.724,0,0,0,4.42-4.42,11.059,11.059,0,0,0,.7-3.669c.074-1.613.091-2.126.091-6.232s-.016-4.622-.091-6.232a11.166,11.166,0,0,0-.7-3.669,7.4,7.4,0,0,0-1.743-2.677,7.41,7.41,0,0,0-2.677-1.743,11.058,11.058,0,0,0-3.669-.7C731.606.659,731.09.64,726.984.64Z" transform="translate(-711.87 -0.64)" fill="#6bc1db"/>
    <path id="Path_6" data-name="Path 6" d="M751.264,32.3a7.764,7.764,0,1,0,7.764,7.764A7.764,7.764,0,0,0,751.264,32.3Zm0,12.8a5.04,5.04,0,1,1,5.04-5.04A5.04,5.04,0,0,1,751.264,45.1Z" transform="translate(-736.15 -24.943)" fill="#6bc1db"/>
    <circle id="Ellipse_1" data-name="Ellipse 1" cx="1.815" cy="1.815" r="1.815" transform="translate(21.37 5.236)" fill="#6bc1db"/>
  </g>
</svg>
