<svg xmlns="http://www.w3.org/2000/svg" width="31.243" height="26.43" viewBox="0 0 31.243 26.43">
  <path id="telegram_1_" d="M224.573,9.051l-28,10.6c-1.531.442-1.483,1.954-.351,2.319l7.016,2.189,2.684,8.231c.325.9.593,1.241,1.15,1.248.586.007.811-.207,1.418-.744.713-.669,1.8-1.722,3.511-3.388l7.3,5.394c1.343.741,2.312.358,2.647-1.248l4.576-22.634C227.013,9.055,225.858,8.467,224.573,9.051ZM204.337,23.66,220.29,13.652c.785-.528,1.032.06.679.467L207.73,26.028l-.679,5.944Z" transform="translate(-195.394 -8.836)" fill="#6bc1db"/>
</svg>
