<svg xmlns="http://www.w3.org/2000/svg" width="32.424" height="26.35" viewBox="0 0 32.424 26.35">
  <path id="twitter_1_" d="M483.5,12.129a13.253,13.253,0,0,1-3.82,1.048A6.671,6.671,0,0,0,482.609,9.5a13.359,13.359,0,0,1-4.225,1.615,6.658,6.658,0,0,0-11.336,6.065,18.881,18.881,0,0,1-13.71-6.95,6.659,6.659,0,0,0,2.057,8.882,6.6,6.6,0,0,1-3.012-.832v.084a6.657,6.657,0,0,0,5.335,6.523,6.7,6.7,0,0,1-3,.114,6.658,6.658,0,0,0,6.214,4.62,13.346,13.346,0,0,1-8.261,2.849,13.763,13.763,0,0,1-1.587-.093,18.83,18.83,0,0,0,10.2,2.988c12.235,0,18.925-10.136,18.925-18.925,0-.288-.007-.574-.019-.86A13.57,13.57,0,0,0,483.5,12.129Z" transform="translate(-451.08 -9.01)" fill="#6bc1db"/>
</svg>
